<?xml version="1.0" encoding="utf-8"?>
<!-- Generator: Adobe Illustrator 24.1.3, SVG Export Plug-In . SVG Version: 6.00 Build 0)  -->
<svg version="1.1" id="Layer_1" xmlns="http://www.w3.org/2000/svg" xmlns:xlink="http://www.w3.org/1999/xlink" x="0px" y="0px"
	 viewBox="0 0 162 36" style="enable-background:new 0 0 162 36;" xml:space="preserve">
<style type="text/css">
	.st0{fill:#0b2251;}
</style>
<g id="wordmark">
	<polygon class="st0" points="21.9,19.5 1.1,0.4 1.1,0.3 0,0.3 0,34.8 7.5,34.8 7.5,16.8 28.2,35.8 28.2,35.9 29.3,35.9 29.3,1.4
		21.9,1.4 	"/>
	<path class="st0" d="M48.1,0.3h-0.9L30.3,34.8h8.2l2-4.9H54l2,4.9h8.6L48.1,0.3L48.1,0.3z M51.4,24h-8.5l4.2-10L51.4,24z"/>
	<path class="st0" d="M82.6,0.3h-0.9L64.8,34.8H73l2-4.9h13.5l2,4.9h8.6L82.6,0.3L82.6,0.3z M86.1,24h-8.5l4.2-10L86.1,24z"/>
	<path class="st0" d="M121.6,26.6c-2,0.9-4.3,1.4-6.5,1.4c-3,0-5.3-0.9-7.2-2.8c-1.7-1.8-2.7-4.4-2.7-7.6c0-3,0.8-5.4,2.6-7.4
		c1.6-1.8,3.9-2.8,6.6-2.8c2.9,0,5.4,1,7.7,2.9c0.5,0.4,1,0.9,1.6,1.5l0.3,0.3l0.7-9L124.6,3c-2.1-1.1-4.1-1.9-5.9-2.5
		c-1.4-0.4-3.1-0.6-4.7-0.6c-4.8,0-8.9,1.7-12.2,5.1c-3.3,3.4-4.9,7.7-4.9,12.7c0,3.7,0.9,7.2,2.9,10.1c1.9,3.1,4.4,5.2,7.6,6.4
		c1.9,0.8,4.3,1.2,7.1,1.2c3.7,0,7.2-0.9,10.4-2.8h0.1l0.7-9.2l-0.3,0.3C123.9,25.3,122.8,26.1,121.6,26.6z"/>
	<path class="st0" d="M148.1,4.1c-2.5-1.8-6-2.8-10.4-2.8h-8.2v33.3h8V22.7h0.6c4.3,0,7.7-0.9,10.1-2.9c2.5-1.8,3.7-4.5,3.7-7.8
		C151.8,8.6,150.5,6,148.1,4.1z M144.6,11.9c0,3-2.1,4.5-6.7,4.5h-0.5V7.7h0.6c2.6,0,4.3,0.4,5.2,1C144.2,9.5,144.6,10.5,144.6,11.9
		z"/>
	<path class="st0" d="M157,31.8c0.2,0.1,0.3,0.2,0.5,0.3c0.1,0.1,0.2,0.3,0.3,0.5s0.1,0.4,0.1,0.6s0,0.4-0.1,0.6
		c-0.1,0.2-0.2,0.3-0.3,0.5c-0.1,0.1-0.3,0.2-0.5,0.3s-0.4,0.1-0.6,0.1c-0.2,0-0.4,0-0.6-0.1c-0.2-0.1-0.3-0.2-0.5-0.3
		c-0.1-0.1-0.2-0.3-0.3-0.5s-0.1-0.4-0.1-0.6c0-0.2,0-0.4,0.1-0.6c0.1-0.2,0.2-0.3,0.3-0.5c0.1-0.1,0.3-0.2,0.5-0.3
		c0.2-0.1,0.4-0.1,0.6-0.1C156.6,31.5,156.8,31.7,157,31.8z M155.8,32c-0.2,0.1-0.3,0.2-0.4,0.3c-0.1,0.1-0.2,0.2-0.3,0.4
		S155,33,155,33.2s0,0.3,0.1,0.5s0.1,0.3,0.3,0.4c0.1,0.1,0.2,0.2,0.4,0.3s0.3,0.1,0.5,0.1s0.3,0,0.5-0.1s0.3-0.2,0.4-0.3
		c0.1-0.1,0.2-0.2,0.3-0.4s0.1-0.3,0.1-0.5s0-0.3-0.1-0.5s-0.2-0.3-0.3-0.4s-0.2-0.2-0.4-0.3c-0.2-0.1-0.3-0.1-0.5-0.1
		C156.2,31.9,156,31.9,155.8,32z M155.8,34v-1.7h0.7c0.2,0,0.3,0,0.4,0.1c0.1,0.1,0.1,0.2,0.1,0.4c0,0.1,0,0.1,0,0.2
		c0,0.1-0.1,0.1-0.1,0.1l-0.1,0.1c-0.1,0-0.1,0-0.2,0l0.5,0.8H157l-0.5-0.8H156V34H155.8z M156.6,33c0.1,0,0.1,0,0.2,0
		c0.1,0,0.1,0,0.1-0.1c0,0,0-0.1,0-0.2c0-0.1,0-0.1,0-0.1l-0.1-0.1h-0.1c0,0-0.1,0-0.2,0H156v0.6h0.3C156.4,33,156.4,33,156.6,33z"
		/>
</g>
</svg>
